<svg width="330" height="224" viewBox="0 0 330 224" fill="none" xmlns="http://www.w3.org/2000/svg">
<path d="M13.3687 222.965C6.24581 223.783 7.49696e-08 218.213 1.60467e-07 211.044L2.53404e-06 12C2.61307e-06 5.37259 5.37259 6.40674e-08 12 1.43099e-07L319 3.80404e-06C325.627 3.88307e-06 331 5.37259 331 12L331 175.799C331 181.897 326.427 187.025 320.369 187.721L13.3687 222.965Z" fill="url(#paint0_linear_0_8437)"/>
<path d="M13.3687 222.965C6.24581 223.783 7.49696e-08 218.213 1.60467e-07 211.044L2.53404e-06 12C2.61307e-06 5.37259 5.37259 6.40674e-08 12 1.43099e-07L319 3.80404e-06C325.627 3.88307e-06 331 5.37259 331 12L331 175.799C331 181.897 326.427 187.025 320.369 187.721L13.3687 222.965Z" fill="black" fill-opacity="0.2"/>
<defs>
<linearGradient id="paint0_linear_0_8437" x1="166" y1="209.5" x2="165.994" y2="-8.39376e-06" gradientUnits="userSpaceOnUse">
<stop stop-color="#20605A"/>
<stop offset="0.154239" stop-color="#1C4847"/>
<stop offset="0.921966" stop-color="#152129"/>
</linearGradient>
</defs>
</svg>
