<svg width="120" height="34" viewBox="0 0 120 34" fill="none" xmlns="http://www.w3.org/2000/svg">
<path d="M119.249 29.2554C119.249 31.0177 117.734 32.4452 115.859 32.4452H4.91793C3.04428 32.4452 1.52344 31.0177 1.52344 29.2554V3.81796C1.52344 2.05651 3.04428 0.624023 4.91793 0.624023H115.858C117.734 0.624023 119.248 2.05651 119.248 3.81796L119.249 29.2554Z" fill="#10161E"/>
<path d="M115.502 0.662487C117.543 0.662487 119.204 2.21983 119.204 4.1337V28.9355C119.204 30.8493 117.543 32.4067 115.502 32.4067H5.27151C3.23005 32.4067 1.56888 30.8493 1.56888 28.9355V4.1337C1.56888 2.21983 3.23005 0.662487 5.27151 0.662487H115.502ZM115.502 7.62939e-05H5.27151C2.84755 7.62939e-05 0.862305 1.86124 0.862305 4.1337V28.9355C0.862305 31.2079 2.84755 33.0691 5.27151 33.0691H115.502C117.926 33.0691 119.911 31.2079 119.911 28.9355V4.1337C119.911 1.86124 117.926 7.62939e-05 115.502 7.62939e-05Z" fill="#A6A6A6"/>
<path d="M27.4302 16.3558C27.4047 13.6913 29.7574 12.395 29.865 12.3346C28.5325 10.5134 26.4673 10.2645 25.7415 10.2447C24.0069 10.0735 22.3244 11.2177 21.4408 11.2177C20.5395 11.2177 19.1789 10.2612 17.7124 10.2893C15.8252 10.3166 14.0598 11.3409 13.0915 12.9315C11.0933 16.1748 12.5836 20.9408 14.4981 23.5624C15.4557 24.8463 16.5748 26.2798 18.0395 26.2294C19.4725 26.174 20.0078 25.3729 21.7371 25.3729C23.4505 25.3729 23.9532 26.2294 25.447 26.1972C26.9849 26.174 27.9532 24.9075 28.8773 23.612C29.9841 22.1404 30.4285 20.6912 30.4461 20.6168C30.41 20.6052 27.4593 19.5495 27.4302 16.3558Z" fill="white"/>
<path d="M24.6084 8.52013C25.3791 7.61652 25.9064 6.38718 25.76 5.13965C24.6445 5.18595 23.2494 5.86303 22.4461 6.7468C21.7353 7.52558 21.1004 8.80204 21.2644 10.0024C22.5175 10.0901 23.8041 9.40969 24.6084 8.52013Z" fill="white"/>
<path d="M44.1169 8.27509C44.1169 9.24814 43.8057 9.98062 43.184 10.4725C42.6081 10.9264 41.7898 11.1537 40.7298 11.1537C40.2042 11.1537 39.7545 11.1323 39.3779 11.0893V5.77259C39.8691 5.69819 40.3982 5.66016 40.9697 5.66016C41.9794 5.66016 42.7404 5.86601 43.2536 6.27772C43.8286 6.74317 44.1169 7.40868 44.1169 8.27509ZM43.1425 8.29906C43.1425 7.66827 42.9644 7.18464 42.6081 6.84733C42.2519 6.51086 41.7316 6.3422 41.0464 6.3422C40.7554 6.3422 40.5076 6.36039 40.3021 6.39842V10.4403C40.4159 10.4568 40.624 10.4643 40.9264 10.4643C41.6337 10.4643 42.1795 10.2799 42.564 9.91118C42.9485 9.54246 43.1425 9.00509 43.1425 8.29906Z" fill="white"/>
<path d="M49.2834 9.12486C49.2834 9.72424 49.1008 10.2153 48.7357 10.6006C48.353 10.9966 47.846 11.1942 47.2128 11.1942C46.6026 11.1942 46.1167 11.0048 45.7542 10.6245C45.3927 10.2451 45.2119 9.7664 45.2119 9.18935C45.2119 8.58584 45.398 8.09063 45.7719 7.7062C46.1458 7.32178 46.6484 7.12915 47.2816 7.12915C47.8918 7.12915 48.3821 7.31847 48.7534 7.69794C49.1061 8.06666 49.2834 8.54285 49.2834 9.12486ZM48.3248 9.15297C48.3248 8.79335 48.2419 8.48498 48.077 8.22787C47.883 7.91702 47.607 7.76159 47.2481 7.76159C46.8768 7.76159 46.5946 7.91702 46.4006 8.22787C46.2348 8.48498 46.1528 8.79831 46.1528 9.16868C46.1528 9.52831 46.2357 9.83668 46.4006 10.0938C46.6008 10.4046 46.8795 10.5601 47.2393 10.5601C47.592 10.5601 47.8689 10.4022 48.0682 10.0855C48.2393 9.82345 48.3248 9.5126 48.3248 9.15297Z" fill="white"/>
<path d="M56.2114 7.20874L54.9107 11.1059H54.0642L53.5254 9.41362C53.3887 8.99116 53.2776 8.57118 53.1911 8.15451H53.1744C53.0941 8.58276 52.983 9.00191 52.8402 9.41362L52.2679 11.1059H51.4116L50.1885 7.20874H51.1382L51.6082 9.06143C51.722 9.4996 51.8155 9.91709 51.8904 10.3123H51.9072C51.976 9.98654 52.0897 9.57152 52.2502 9.0697L52.8402 7.20957H53.5933L54.1585 9.03002C54.2952 9.47397 54.4063 9.90139 54.4919 10.3131H54.5174C54.58 9.91213 54.6744 9.48472 54.7996 9.03002L55.304 7.20957H56.2114V7.20874Z" fill="white"/>
<path d="M61.0022 11.1057H60.078V8.87358C60.078 8.18574 59.7993 7.84183 59.2402 7.84183C58.966 7.84183 58.7446 7.93607 58.5727 8.12539C58.4025 8.31471 58.3161 8.53793 58.3161 8.79339V11.1049H57.3919V8.32215C57.3919 7.97989 57.3804 7.60869 57.3584 7.2069H58.1706L58.2138 7.8162H58.2394C58.3469 7.62688 58.5074 7.47063 58.7182 7.34579C58.9686 7.20029 59.2491 7.12671 59.5559 7.12671C59.9439 7.12671 60.2667 7.2441 60.5233 7.47972C60.8425 7.76825 61.0022 8.19897 61.0022 8.77107V11.1057Z" fill="white"/>
<path d="M63.5502 11.1058H62.627V5.42041H63.5502V11.1058Z" fill="white"/>
<path d="M68.9914 9.12486C68.9914 9.72424 68.8088 10.2153 68.4438 10.6006C68.061 10.9966 67.5531 11.1942 66.9208 11.1942C66.3097 11.1942 65.8238 11.0048 65.4623 10.6245C65.1007 10.2451 64.9199 9.7664 64.9199 9.18935C64.9199 8.58584 65.106 8.09063 65.4799 7.7062C65.8538 7.32178 66.3564 7.12915 66.9887 7.12915C67.5998 7.12915 68.0893 7.31847 68.4614 7.69794C68.8141 8.06666 68.9914 8.54285 68.9914 9.12486ZM68.0319 9.15297C68.0319 8.79335 67.949 8.48498 67.7841 8.22787C67.591 7.91702 67.3141 7.76159 66.9561 7.76159C66.584 7.76159 66.3018 7.91702 66.1086 8.22787C65.9429 8.48498 65.8608 8.79831 65.8608 9.16868C65.8608 9.52831 65.9437 9.83668 66.1086 10.0938C66.3088 10.4046 66.5875 10.5601 66.9473 10.5601C67.3 10.5601 67.576 10.4022 67.7753 10.0855C67.9473 9.82345 68.0319 9.5126 68.0319 9.15297Z" fill="white"/>
<path d="M73.4645 11.1057H72.6347L72.5659 10.6568H72.5403C72.2564 11.0148 71.8516 11.1942 71.326 11.1942C70.9336 11.1942 70.6161 11.0759 70.3772 10.8411C70.1602 10.6279 70.0518 10.3625 70.0518 10.0475C70.0518 9.5713 70.2634 9.20836 70.6893 8.95704C71.1144 8.70572 71.7123 8.58253 72.4821 8.58832V8.51557C72.4821 8.00217 72.1946 7.74589 71.6188 7.74589C71.2087 7.74589 70.8472 7.84261 70.535 8.03441L70.3472 7.46563C70.7334 7.24158 71.2105 7.12915 71.7731 7.12915C72.8595 7.12915 73.4045 7.66652 73.4045 8.74126V10.1765C73.4045 10.5658 73.4248 10.8759 73.4645 11.1057ZM72.505 9.7664V9.16537C71.4856 9.14884 70.9759 9.41091 70.9759 9.95076C70.9759 10.1541 71.0341 10.3063 71.1532 10.4079C71.2722 10.5096 71.4239 10.5601 71.6047 10.5601C71.8075 10.5601 71.9971 10.4997 72.1699 10.3798C72.3437 10.2591 72.4504 10.1062 72.49 9.91852C72.4997 9.87636 72.505 9.8251 72.505 9.7664Z" fill="white"/>
<path d="M78.7153 11.1058H77.8952L77.852 10.48H77.8264C77.5645 10.9562 77.1183 11.1943 76.4913 11.1943C75.9905 11.1943 75.5733 11.0099 75.2427 10.6412C74.912 10.2725 74.7471 9.79379 74.7471 9.20599C74.7471 8.57519 74.9261 8.06428 75.2859 7.67406C75.6342 7.3103 76.061 7.12842 76.5689 7.12842C77.1271 7.12842 77.5178 7.30452 77.74 7.65753H77.7577V5.42041H78.6827V10.0559C78.6827 10.4353 78.6933 10.785 78.7153 11.1058ZM77.7577 9.46227V8.81246C77.7577 8.70003 77.7488 8.60909 77.7321 8.53965C77.6801 8.33131 77.5681 8.15604 77.3979 8.01467C77.2259 7.8733 77.0187 7.80221 76.7797 7.80221C76.4349 7.80221 76.1651 7.93035 75.9666 8.18746C75.77 8.44457 75.6704 8.77278 75.6704 9.17374C75.6704 9.559 75.7647 9.8715 75.9543 10.1121C76.1545 10.3684 76.4243 10.4965 76.7621 10.4965C77.0654 10.4965 77.3079 10.3899 77.4922 10.1757C77.6704 9.97815 77.7577 9.74005 77.7577 9.46227Z" fill="white"/>
<path d="M86.6193 9.12486C86.6193 9.72424 86.4368 10.2153 86.0717 10.6006C85.689 10.9966 85.1828 11.1942 84.5487 11.1942C83.9394 11.1942 83.4535 11.0048 83.0902 10.6245C82.7286 10.2451 82.5479 9.7664 82.5479 9.18935C82.5479 8.58584 82.7339 8.09063 83.1078 7.7062C83.4817 7.32178 83.9844 7.12915 84.6184 7.12915C85.2278 7.12915 85.719 7.31847 86.0893 7.69794C86.4421 8.06666 86.6193 8.54285 86.6193 9.12486ZM85.6616 9.15297C85.6616 8.79335 85.5787 8.48498 85.4138 8.22787C85.2189 7.91702 84.9438 7.76159 84.584 7.76159C84.2137 7.76159 83.9315 7.91702 83.7366 8.22787C83.5708 8.48498 83.4888 8.79831 83.4888 9.16868C83.4888 9.52831 83.5717 9.83668 83.7366 10.0938C83.9367 10.4046 84.2154 10.5601 84.5752 10.5601C84.9279 10.5601 85.2057 10.4022 85.405 10.0855C85.5752 9.82345 85.6616 9.5126 85.6616 9.15297Z" fill="white"/>
<path d="M91.5882 11.1057H90.6649V8.87358C90.6649 8.18574 90.3862 7.84183 89.8263 7.84183C89.552 7.84183 89.3307 7.93607 89.1596 8.12539C88.9885 8.31471 88.903 8.53793 88.903 8.79339V11.1049H87.9779V8.32215C87.9779 7.97989 87.9674 7.60869 87.9453 7.2069H88.7566L88.7998 7.8162H88.8254C88.9339 7.62688 89.0943 7.47063 89.3042 7.34579C89.5555 7.20029 89.8351 7.12671 90.1429 7.12671C90.53 7.12671 90.8527 7.2441 91.1093 7.47972C91.4295 7.76825 91.5882 8.19897 91.5882 8.77107V11.1057Z" fill="white"/>
<path d="M97.8081 7.85735H96.7905V9.75055C96.7905 10.2317 96.9713 10.4723 97.3293 10.4723C97.4951 10.4723 97.6326 10.4591 97.7411 10.4318L97.7649 11.089C97.5824 11.1535 97.3425 11.1857 97.0471 11.1857C96.682 11.1857 96.3981 11.0816 96.1926 10.8732C95.9862 10.6649 95.884 10.3144 95.884 9.82247V7.85735H95.2764V7.20837H95.884V6.49408L96.7896 6.23779V7.20754H97.8072V7.85735H97.8081Z" fill="white"/>
<path d="M102.701 11.1058H101.776V8.89018C101.776 8.19159 101.497 7.84189 100.939 7.84189C100.511 7.84189 100.218 8.04444 100.057 8.44953C100.03 8.53468 100.014 8.63885 100.014 8.76121V11.105H99.0908V5.42041H100.014V7.76914H100.032C100.323 7.34172 100.74 7.12842 101.28 7.12842C101.663 7.12842 101.98 7.24582 102.231 7.48144C102.544 7.77492 102.701 8.21143 102.701 8.78849V11.1058Z" fill="white"/>
<path d="M107.748 8.97286C107.748 9.12829 107.735 9.25891 107.713 9.36556H104.942C104.954 9.75081 105.086 10.0443 105.343 10.2477C105.577 10.4296 105.88 10.5205 106.25 10.5205C106.66 10.5205 107.034 10.4593 107.371 10.3361L107.516 10.938C107.121 11.0984 106.658 11.1786 106.121 11.1786C105.477 11.1786 104.97 11.0008 104.603 10.6453C104.234 10.2898 104.052 9.81282 104.052 9.21427C104.052 8.62647 104.222 8.13704 104.565 7.74683C104.923 7.33016 105.407 7.12183 106.018 7.12183C106.616 7.12183 107.07 7.33016 107.377 7.74683C107.625 8.07752 107.748 8.48675 107.748 8.97286ZM106.866 8.74882C106.873 8.49171 106.812 8.27015 106.687 8.08331C106.526 7.84273 106.282 7.72203 105.951 7.72203C105.65 7.72203 105.404 7.83942 105.216 8.07504C105.062 8.26271 104.972 8.48675 104.942 8.74882H106.866Z" fill="white"/>
<path d="M48.1682 26.045H46.1656L45.0685 22.8134H41.2555L40.2105 26.045H38.2607L42.0385 15.043H44.3719L48.1682 26.045ZM44.7379 21.4575L43.7458 18.5847C43.6409 18.2912 43.4442 17.6 43.1541 16.5121H43.1188C43.0033 16.98 42.8172 17.6711 42.5615 18.5847L41.587 21.4575H44.7379Z" fill="white"/>
<path d="M57.8835 21.9809C57.8835 23.3301 57.4946 24.3966 56.7168 25.1795C56.0201 25.8764 55.155 26.2245 54.1224 26.2245C53.0078 26.2245 52.2071 25.8492 51.7194 25.0985H51.6841V29.2776H49.804V20.7235C49.804 19.8752 49.7802 19.0047 49.7344 18.1118H51.3878L51.4928 19.3693H51.528C52.155 18.4219 53.1065 17.949 54.3834 17.949C55.3817 17.949 56.215 18.3185 56.8817 19.0584C57.5501 19.7992 57.8835 20.7731 57.8835 21.9809ZM55.9681 22.0454C55.9681 21.2732 55.7829 20.6367 55.4108 20.1357C55.0043 19.6132 54.4584 19.3519 53.7741 19.3519C53.3102 19.3519 52.8887 19.4974 52.5122 19.7843C52.1347 20.0737 51.8878 20.4515 51.7723 20.9194C51.7141 21.1377 51.685 21.3162 51.685 21.4568V22.7795C51.685 23.3566 51.8737 23.8435 52.2511 24.2412C52.6286 24.6388 53.1189 24.8372 53.7221 24.8372C54.4302 24.8372 54.9813 24.581 55.3755 24.07C55.7706 23.5583 55.9681 22.8837 55.9681 22.0454Z" fill="white"/>
<path d="M67.616 21.9809C67.616 23.3301 67.2271 24.3966 66.4484 25.1795C65.7526 25.8764 64.8876 26.2245 63.8549 26.2245C62.7403 26.2245 61.9396 25.8492 61.4528 25.0985H61.4175V29.2776H59.5374V20.7235C59.5374 19.8752 59.5136 19.0047 59.4678 18.1118H61.1212L61.2262 19.3693H61.2614C61.8875 18.4219 62.8391 17.949 64.1168 17.949C65.1142 17.949 65.9475 18.3185 66.616 19.0584C67.2818 19.7992 67.616 20.7731 67.616 21.9809ZM65.7006 22.0454C65.7006 21.2732 65.5145 20.6367 65.1424 20.1357C64.7359 19.6132 64.1918 19.3519 63.5066 19.3519C63.0419 19.3519 62.6212 19.4974 62.2438 19.7843C61.8664 20.0737 61.6203 20.4515 61.5048 20.9194C61.4475 21.1377 61.4175 21.3162 61.4175 21.4568V22.7795C61.4175 23.3566 61.6062 23.8435 61.9819 24.2412C62.3593 24.638 62.8496 24.8372 63.4546 24.8372C64.1627 24.8372 64.7138 24.581 65.108 24.07C65.5031 23.5583 65.7006 22.8837 65.7006 22.0454Z" fill="white"/>
<path d="M78.4983 22.9598C78.4983 23.8956 78.1517 24.657 77.4559 25.2448C76.6914 25.8872 75.627 26.208 74.2592 26.208C72.9965 26.208 71.9841 25.9798 71.2178 25.5226L71.6534 24.0535C72.4788 24.5215 73.3845 24.7562 74.3712 24.7562C75.0794 24.7562 75.6305 24.6058 76.0265 24.3065C76.4206 24.0072 76.6173 23.6054 76.6173 23.1044C76.6173 22.658 76.455 22.2819 76.1296 21.9768C75.806 21.6717 75.2654 21.3882 74.5106 21.1261C72.4559 20.4077 71.4294 19.3552 71.4294 17.9713C71.4294 17.0669 71.7892 16.3253 72.5097 15.7482C73.2275 15.1704 74.1852 14.8818 75.3827 14.8818C76.4506 14.8818 77.3377 15.0563 78.0459 15.4043L77.5758 16.8412C76.9145 16.5039 76.1667 16.3352 75.3298 16.3352C74.6684 16.3352 74.1517 16.4882 73.7813 16.7924C73.4682 17.0644 73.3113 17.3959 73.3113 17.7886C73.3113 18.2235 73.4903 18.5831 73.8501 18.8658C74.1631 19.1271 74.7319 19.4098 75.5573 19.7149C76.567 20.096 77.3087 20.5416 77.7857 21.0525C78.261 21.5618 78.4983 22.1992 78.4983 22.9598Z" fill="white"/>
<path d="M84.714 19.4347H82.6417V23.2864C82.6417 24.2661 83.0068 24.7555 83.7387 24.7555C84.0747 24.7555 84.3534 24.7282 84.5738 24.6737L84.6258 26.0121C84.2555 26.1419 83.7678 26.2073 83.1637 26.2073C82.4212 26.2073 81.841 25.9948 81.4221 25.5707C81.005 25.1457 80.7951 24.4331 80.7951 23.4319V19.4331H79.5605V18.1103H80.7951V16.6577L82.6417 16.1353V18.1103H84.714V19.4347Z" fill="white"/>
<path d="M94.0648 22.0131C94.0648 23.2325 93.6926 24.2336 92.9501 25.0166C92.1715 25.8226 91.138 26.2244 89.8496 26.2244C88.608 26.2244 87.6194 25.8383 86.8822 25.0662C86.145 24.294 85.7764 23.3193 85.7764 22.1445C85.7764 20.9152 86.1556 19.9082 86.9166 19.1253C87.6758 18.3416 88.7005 17.9497 89.9889 17.9497C91.2305 17.9497 92.2297 18.3358 92.9836 19.1088C93.705 19.8586 94.0648 20.8267 94.0648 22.0131ZM92.1141 22.0701C92.1141 21.3385 91.9475 20.711 91.6097 20.1877C91.2156 19.5544 90.6521 19.2386 89.9219 19.2386C89.1662 19.2386 88.5921 19.5552 88.1979 20.1877C87.8602 20.7118 87.6935 21.3492 87.6935 22.1032C87.6935 22.8348 87.8602 23.4623 88.1979 23.9848C88.6044 24.6181 89.1723 24.9339 89.9051 24.9339C90.623 24.9339 91.1865 24.6115 91.593 23.9683C91.9395 23.435 92.1141 22.8009 92.1141 22.0701Z" fill="white"/>
<path d="M100.176 19.662C99.9898 19.6297 99.7913 19.6132 99.5832 19.6132C98.9218 19.6132 98.4104 19.8471 98.0506 20.3159C97.7375 20.7293 97.5806 21.2517 97.5806 21.8825V26.0451H95.7013L95.719 20.6102C95.719 19.6958 95.6952 18.8633 95.6484 18.1127H97.286L97.3548 19.6305H97.4068C97.6053 19.1089 97.9183 18.6889 98.3469 18.3739C98.7658 18.0903 99.2181 17.949 99.7058 17.949C99.8795 17.949 100.036 17.9605 100.176 17.9812V19.662Z" fill="white"/>
<path d="M108.584 21.7031C108.584 22.0189 108.562 22.2851 108.515 22.5026H102.875C102.897 23.2863 103.169 23.8857 103.693 24.299C104.168 24.6686 104.783 24.8538 105.538 24.8538C106.373 24.8538 107.135 24.7289 107.82 24.4784L108.115 25.702C107.314 26.0294 106.369 26.1922 105.278 26.1922C103.966 26.1922 102.936 25.8301 102.186 25.1068C101.438 24.3834 101.063 23.412 101.063 22.1934C101.063 20.9971 101.412 20.0009 102.109 19.2064C102.84 18.3582 103.826 17.9341 105.068 17.9341C106.287 17.9341 107.211 18.3582 107.838 19.2064C108.334 19.8802 108.584 20.7135 108.584 21.7031ZM106.791 21.2459C106.803 20.7235 106.681 20.2721 106.426 19.8909C106.101 19.4007 105.601 19.156 104.928 19.156C104.313 19.156 103.813 19.3949 103.431 19.8744C103.118 20.2555 102.932 20.7127 102.875 21.2451H106.791V21.2459Z" fill="white"/>
</svg>
