<svg width="331" height="224" viewBox="0 0 331 224" fill="none" xmlns="http://www.w3.org/2000/svg">
<path d="M317.631 0.534771C324.754 -0.282959 331 5.28682 331 12.4565L331 211.5C331 218.127 325.627 223.5 319 223.5L12 223.5C5.37257 223.5 -2.61307e-06 218.127 -2.53404e-06 211.5L-5.80756e-07 47.7012C-5.08039e-07 41.6033 4.57325 36.475 10.6313 35.7795L317.631 0.534771Z" fill="url(#paint0_linear_2001_9230)"/>
<path d="M317.631 0.534771C324.754 -0.282959 331 5.28682 331 12.4565L331 211.5C331 218.127 325.627 223.5 319 223.5L12 223.5C5.37257 223.5 -2.61307e-06 218.127 -2.53404e-06 211.5L-5.80756e-07 47.7012C-5.08039e-07 41.6033 4.57325 36.475 10.6313 35.7795L317.631 0.534771Z" fill="black" fill-opacity="0.2"/>
<defs>
<linearGradient id="paint0_linear_2001_9230" x1="165" y1="14" x2="165.006" y2="223.5" gradientUnits="userSpaceOnUse">
<stop stop-color="#20605A"/>
<stop offset="0.154239" stop-color="#1C4847"/>
<stop offset="0.921966" stop-color="#152129"/>
</linearGradient>
</defs>
</svg>
